<?xml version="1.0" standalone="no"?>
<!DOCTYPE svg PUBLIC "-//W3C//DTD SVG 20010904//EN"
 "http://www.w3.org/TR/2001/REC-SVG-20010904/DTD/svg10.dtd">
<svg version="1.0" xmlns="http://www.w3.org/2000/svg"
 width="225.000000pt" height="225.000000pt" viewBox="0 0 225.000000 225.000000"
 preserveAspectRatio="xMidYMid meet">

<g transform="translate(0.000000,225.000000) scale(0.100000,-0.100000)"
fill="#000000" stroke="none">
<path d="M960 2165 c-156 -25 -302 -83 -430 -173 l-65 -45 -40 49 c-91 110
-103 120 -122 108 -10 -6 -19 -17 -21 -25 -1 -8 28 -51 64 -97 l67 -84 -34
-34 -35 -34 -103 35 c-110 37 -135 35 -129 -8 2 -16 22 -27 87 -48 46 -16 86
-31 88 -33 3 -2 -14 -32 -37 -67 -239 -351 -235 -828 9 -1182 61 -88 192 -217
280 -277 421 -283 983 -223 1338 143 175 180 267 375 295 629 26 233 -38 491
-172 687 -23 35 -40 65 -37 67 2 2 42 17 88 33 74 24 84 31 87 53 2 16 -3 28
-12 31 -8 3 -61 -10 -118 -29 l-102 -34 -35 34 -34 34 67 84 c36 46 65 89 64
97 -2 8 -11 19 -21 25 -19 12 -31 2 -122 -108 l-40 -49 -65 45 c-220 153 -492
215 -760 173z m335 -77 c98 -15 244 -69 339 -125 103 -62 256 -212 318 -313
201 -325 201 -725 0 -1050 -60 -98 -205 -243 -305 -304 -321 -199 -723 -199
-1047 2 -96 59 -243 206 -302 302 -201 325 -201 725 0 1050 59 96 206 243 302
302 214 132 435 176 695 136z"/>
<path d="M950 1954 c-272 -58 -513 -263 -615 -524 -74 -188 -74 -422 0 -610
84 -215 270 -401 485 -485 188 -74 422 -74 610 0 215 84 401 270 485 485 74
188 74 422 0 610 -84 215 -270 401 -485 485 -138 54 -336 70 -480 39z m224
-278 c98 -41 121 -159 45 -232 -27 -26 -37 -29 -94 -29 -57 0 -67 3 -94 29
-75 72 -53 190 43 232 40 17 59 17 100 0z m-26 -988 c7 -7 12 -20 12 -30 0
-14 -8 -18 -35 -18 -27 0 -35 4 -35 18 0 20 18 42 35 42 6 0 16 -5 23 -12z"/>
</g>
</svg>
